<?xml version="1.0" standalone="no"?>
<!DOCTYPE svg PUBLIC "-//W3C//DTD SVG 20010904//EN"
 "http://www.w3.org/TR/2001/REC-SVG-20010904/DTD/svg10.dtd">
<svg version="1.0" xmlns="http://www.w3.org/2000/svg"
 width="1125.000000pt" height="734.000000pt" viewBox="0 0 1125.000000 734.000000"
 preserveAspectRatio="xMidYMid meet">

<g transform="translate(0.000000,734.000000) scale(0.100000,-0.100000)"
fill="#000000" stroke="none">
<path d="M5860 5809 c-258 -25 -555 -173 -807 -404 -316 -290 -507 -678 -424
-861 45 -98 154 -174 260 -181 55 -4 56 -4 35 14 -12 10 -36 26 -53 35 -41 22
-54 60 -46 128 23 196 128 384 324 580 301 302 712 507 975 487 191 -14 291
-111 315 -304 25 -200 -63 -392 -283 -621 -160 -166 -317 -283 -514 -384 -94
-47 -309 -124 -320 -114 -8 9 138 244 264 427 133 192 276 375 400 513 49 54
94 107 101 119 28 50 -51 112 -155 123 -51 6 -66 3 -96 -15 -133 -83 -483
-598 -754 -1111 -138 -262 -242 -525 -242 -612 0 -51 35 -108 93 -152 42 -32
65 -33 71 -3 20 106 32 145 69 236 23 58 47 106 52 107 6 1 36 -51 68 -116
118 -239 303 -480 452 -585 172 -122 332 -152 474 -89 101 45 191 142 207 223
11 55 -24 35 -60 -34 -38 -73 -91 -105 -171 -105 -262 2 -512 246 -742 727
-35 73 -63 136 -63 140 0 5 42 14 93 21 171 23 428 123 622 242 258 158 479
394 570 608 88 209 86 401 -6 547 -140 222 -381 397 -574 417 -27 3 -88 2
-135 -3z"/>
<path d="M2900 2394 c-40 -16 -40 -21 -40 -530 l0 -493 26 -20 c33 -26 45 -26
78 0 l26 20 0 190 0 189 103 0 103 0 119 -191 c124 -198 153 -234 189 -223 27
8 56 41 56 65 0 11 -49 98 -110 195 -60 96 -110 178 -110 180 0 3 25 28 55 55
77 71 110 142 110 239 -1 59 -6 87 -27 131 -33 72 -94 134 -167 167 -53 25
-66 27 -226 29 -93 1 -177 0 -185 -3z m370 -153 c19 -10 48 -35 64 -55 25 -30
31 -48 34 -101 5 -77 -20 -130 -81 -172 -38 -26 -48 -28 -169 -32 l-128 -3 0
191 0 191 123 0 c100 0 129 -3 157 -19z"/>
<path d="M3685 2375 c-30 -29 -32 -55 -6 -86 l19 -24 326 -3 c372 -3 386 -1
386 63 0 22 -8 43 -20 55 -19 19 -33 20 -350 20 l-331 0 -24 -25z"/>
<path d="M4759 2384 c-56 -17 -133 -82 -161 -137 -25 -50 -35 -151 -19 -200
29 -88 99 -149 212 -187 165 -56 223 -126 198 -242 -19 -87 -95 -148 -184
-148 -62 0 -102 19 -155 74 -49 51 -78 58 -110 26 -32 -32 -25 -71 21 -123
121 -138 328 -148 467 -22 23 20 54 62 69 93 37 75 39 192 6 264 -43 93 -131
160 -275 207 -79 26 -114 58 -123 111 -13 79 56 160 137 160 50 0 74 -12 119
-61 43 -45 70 -49 104 -14 32 31 31 50 -1 96 -32 47 -88 86 -150 105 -58 17
-95 17 -155 -2z"/>
<path d="M5255 2375 c-14 -13 -25 -33 -25 -45 0 -11 11 -32 25 -45 23 -24 28
-25 170 -25 l145 0 0 -442 c0 -244 4 -448 8 -454 25 -39 90 -36 111 5 7 13 11
167 11 455 l0 436 135 0 c81 0 144 5 160 12 46 21 46 101 -1 118 -14 6 -173
10 -370 10 l-345 0 -24 -25z"/>
<path d="M6435 2375 l-25 -24 0 -481 c0 -320 4 -488 11 -501 21 -41 86 -44
111 -5 4 6 8 158 8 339 0 180 3 327 8 327 4 0 82 -151 174 -335 111 -221 176
-340 191 -350 54 -35 63 -23 249 347 l173 343 5 -331 c5 -347 6 -355 51 -369
19 -6 59 10 71 29 12 17 10 984 -2 1006 -13 25 -57 34 -84 17 -12 -9 -104
-180 -225 -421 -113 -223 -207 -406 -210 -405 -3 0 -96 181 -206 402 -110 221
-208 410 -217 419 -25 25 -55 22 -83 -7z"/>
<path d="M7625 2388 c-11 -6 -23 -16 -27 -22 -4 -6 -8 -232 -8 -503 l0 -492
28 -21 c26 -22 33 -22 182 -17 182 6 254 25 349 88 155 104 241 263 241 449 0
150 -45 255 -155 365 -81 82 -165 130 -262 150 -82 18 -319 20 -348 3z m407
-166 c85 -42 167 -129 199 -209 32 -83 32 -215 0 -296 -32 -81 -115 -168 -199
-209 -62 -31 -74 -33 -189 -37 l-123 -3 0 397 0 397 123 -4 c115 -3 127 -5
189 -36z"/>
<path d="M3735 1910 c-9 -10 -17 -31 -17 -45 0 -14 8 -35 17 -45 17 -19 32
-20 299 -20 316 0 326 2 326 64 0 65 -4 66 -322 66 -271 0 -286 -1 -303 -20z"/>
<path d="M6183 1505 c-74 -32 -72 -130 3 -161 29 -12 39 -12 68 0 77 32 77
130 1 162 -40 16 -32 17 -72 -1z"/>
<path d="M3685 1445 c-30 -29 -32 -55 -6 -86 l19 -24 323 -3 c224 -2 331 1
350 9 50 20 56 94 10 118 -13 7 -134 11 -346 11 l-326 0 -24 -25z"/>
</g>
</svg>
